<svg t="1686482059597" class="icon" viewBox="0 0 1024 1024" version="1.1" xmlns="http://www.w3.org/2000/svg" p-id="1191" width="200" height="200"><path d="M834 665c19.882 0 36 16.118 36 36v138c0 19.882-16.118 36-36 36H190c-19.882 0-36-16.118-36-36V701c0-19.882 16.118-36 36-36z m-36 72H226v66h572v-66z m36-330c19.882 0 36 16.118 36 36v138c0 19.882-16.118 36-36 36H190c-19.882 0-36-16.118-36-36V443c0-19.882 16.118-36 36-36z m-36 72H226v66h572v-66z m36-330c19.882 0 36 16.118 36 36v138c0 19.882-16.118 36-36 36H190c-19.882 0-36-16.118-36-36V185c0-19.882 16.118-36 36-36z m-36 72H226v66h572v-66z" fill="#4A4A4A" p-id="1192"></path></svg>